#!OML:ASF F:\twosubjects\two\Thursday\Session 1\Rory.ASF
:FULLY-SPECIFIED
:DEGREES
391
root 9.5448 18.4351 -5.84057 -5.56919 60.6535 -6.02411
lowerback 1.17084 -2.68662 -0.85967
upperback 4.7402 -3.34747 -4.15838
thorax 4.03665 -1.57784 -3.8945
lowerneck -1.38692 -7.39975 -5.88426
upperneck 42.842 -6.2963 -5.58501
head 15.4201 -3.90669 -2.03419
rclavicle -7.17613e-014 -1.90833e-014
rhumerus -37.415 2.93865 -23.4061
rradius 121.408
rwrist -40.6008
rhand 1.07095 0.429353
rfingers 7.12502
rthumb 26.6158 -27.72
lclavicle -7.17613e-014 -1.90833e-014
lhumerus -30.5241 15.3393 70.8782
lradius 25.3582
lwrist -26.1033
lhand -11.3033 27.8927
lfingers 7.12502
lthumb 14.7283 57.3495
rfemur -8.9281 6.47932 21.4092
rtibia 21.7891
rfoot -12.3239 6.10186
rtoes 12.7649
lfemur -10.7465 5.6264 -5.47503
ltibia 35.9953
lfoot -9.69291 10.2448
ltoes 4.93192
392
root 9.57311 18.4362 -5.86024 -5.01847 60.4202 -5.35886
lowerback 1.13197 -2.58848 -1.21842
upperback 4.75434 -3.19484 -4.39777
thorax 4.09031 -1.50658 -3.94316
lowerneck -1.2629 -7.46197 -5.45127
upperneck 42.7832 -6.50629 -5.53089
head 15.3266 -3.92739 -2.1
rclavicle -7.55382e-015 7.95139e-014
rhumerus -37.8788 3.0049 -23.5295
rradius 120.799
rwrist -40.3528
rhand 1.24155 2.16865
rfingers 7.12502
rthumb 26.779 -25.9558
lclavicle -7.55382e-015 7.95139e-014
lhumerus -30.3732 14.266 70.895
lradius 25.3049
lwrist -26.0418
lhand -11.3189 26.6154
lfingers 7.12502
lthumb 14.7133 56.0733
rfemur -8.90754 6.19379 20.9574
rtibia 21.8953
rfoot -12.3805 6.46915
rtoes 11.1613
lfemur -9.88139 4.87217 -5.89674
ltibia 33.6993
lfoot -9.5178 12.2559
ltoes 3.52065
393
root 9.60062 18.4433 -5.88053 -4.77732 60.206 -5.01351
lowerback 1.20965 -2.739 -1.68529
upperback 4.70064 -3.39788 -4.32077
thorax 4.01066 -1.62787 -3.59923
lowerneck -1.2772 -7.23521 -5.77884
upperneck 42.8079 -6.15516 -5.43147
head 15.3759 -3.81812 -1.96285
rclavicle 2.8625e-014 9.54166e-015
rhumerus -37.1787 3.45588 -23.3374
rradius 119.991
rwrist -39.4104
rhand 1.9821 3.46779
rfingers 7.12502
rthumb 27.4875 -24.5461
lclavicle 2.8625e-014 9.54166e-015
lhumerus -30.681 14.4387 70.9589
lradius 25.5052
lwrist -26.5305
lhand -10.6089 26.6363
lfingers 7.12502
lthumb 15.3972 56.0429
rfemur -8.87548 6.45055 20.6782
rtibia 22.0762
rfoot -12.4605 6.26767
rtoes 9.87913
lfemur -8.89897 3.77923 -6.06706
ltibia 31.2993
lfoot -10.3477 13.9498
ltoes 7.27943
394
root 9.629 18.44 -5.9093 -5.08184 60.1188 -5.47433
lowerback 1.08229 -3.10228 -1.90099
upperback 4.62252 -3.90112 -3.91196
thorax 4.01834 -1.89933 -3.06923
lowerneck -1.42511 -6.84782 -6.63027
upperneck 42.8807 -5.45467 -5.34397
head 15.52 -3.6421 -1.70703
rclavicle -3.77691e-015 4.45278e-014
rhumerus -35.5615 4.22892 -22.6756
rradius 119.069
rwrist -38.8629
rhand 2.34324 3.92572
rfingers 7.12502
rthumb 27.8328 -24.0328
lclavicle -3.77691e-015 4.45278e-014
lhumerus -31.1186 15.0303 71.228
lradius 25.6958
lwrist -27.045
lhand -9.68168 27.623
lfingers 7.12502
lthumb 16.2902 56.9587
rfemur -9.02109 6.59929 20.7688
rtibia 22.2395
rfoot -12.4199 6.15161
rtoes 11.7021
lfemur -8.15379 2.59451 -5.77346
ltibia 28.8652
lfoot -10.9662 14.3314
ltoes 14.7585
395
root 9.66376 18.4307 -5.95596 -5.12738 60.0864 -5.87027
lowerback 0.730683 -3.40987 -1.76089
upperback 4.54974 -4.31788 -3.70574
thorax 4.13027 -2.10898 -2.96339
lowerneck -1.72732 -6.59262 -7.00086
upperneck 43.0617 -4.95674 -5.39744
head 15.7138 -3.49913 -1.62778
rclavicle 5.02925e-014 -5.40694e-014
rhumerus -34.2811 4.78433 -22.311
rradius 118.23
rwrist -38.6418
rhand 1.85065 3.69785
rfingers 7.12502
rthumb 27.3617 -24.336
lclavicle 5.02925e-014 -5.40694e-014
lhumerus -31.0828 15.5496 71.3579
lradius 25.5456
lwrist -27.6409
lhand -8.31475 28.3567
lfingers 7.12502
lthumb 17.606 57.5796
rfemur -9.4055 5.8832 20.6961
rtibia 22.3291
rfoot -12.2107 7.31347
rtoes 15.1536
lfemur -7.72775 1.58626 -5.65506
ltibia 26.4619
lfoot -9.92978 14.2748
ltoes 16.266
396
root 9.69842 18.427 -6.01106 -4.13964 60.0645 -5.04848
lowerback 0.417949 -3.64213 -2.01649
upperback 4.53742 -4.60441 -3.84816
thorax 4.29419 -2.25654 -2.99967
lowerneck -1.97025 -6.42665 -7.11305
upperneck 43.0318 -4.71626 -5.33177
head 15.7633 -3.41424 -1.55898
rclavicle 6.16232e-014 4.29375e-014
rhumerus -33.3111 4.89008 -22.2891
rradius 117.25
rwrist -38.0222
rhand 1.73609 3.12559
rfingers 7.12502
rthumb 27.2522 -24.9255
lclavicle 6.16232e-014 4.29375e-014
lhumerus -30.9098 16.8277 70.9419
lradius 24.9142
lwrist -28.5628
lhand -8.73821 26.9923
lfingers 7.12502
lthumb 17.1984 56.2512
rfemur -9.74594 5.38712 19.9741
rtibia 22.3549
rfoot -12.131 8.20967
rtoes 17.8296
lfemur -7.28892 0.563962 -6.31065
ltibia 24.1603
lfoot -8.407 14.3371
ltoes 11.5251
397
root 9.72894 18.4262 -6.05134 -3.82689 59.9855 -4.83371
lowerback -0.0070047 -3.86039 -2.39897
upperback 4.74599 -4.86491 -3.67908
thorax 4.7928 -2.40145 -2.66864
lowerneck -2.12759 -6.21042 -7.53483
upperneck 42.594 -4.42692 -5.17308
head 15.595 -3.3411 -1.36592
rclavicle 1.46504e-013 5.56597e-014
rhumerus -32.2084 4.77242 -21.9387
rradius 116.239
rwrist -37.3253
rhand 1.56693 2.7375
rfingers 7.12502
rthumb 27.0903 -25.3389
lclavicle 1.46504e-013 5.56597e-014
lhumerus -30.7329 17.1355 71.3424
lradius 25.1479
lwrist -29.0866
lhand -8.50159 27.5373
lfingers 7.12502
lthumb 17.4262 56.7762
rfemur -9.86328 5.86848 19.6955
rtibia 22.3599
rfoot -12.4395 7.74827
rtoes 18.0342
lfemur -6.67159 -0.476399 -6.51941
ltibia 21.9982
lfoot -7.82361 14.3889
ltoes 8.22885
398
root 9.75922 18.4255 -6.07862 -3.87471 59.9022 -5.02064
lowerback -0.0555195 -3.49148 -2.21224
upperback 4.6369 -4.37227 -3.83897
thorax 4.6912 -2.14537 -2.91451
lowerneck -1.7581 -6.48619 -7.04367
upperneck 42.6363 -5.00934 -4.99895
head 15.5048 -3.48626 -1.43608
rclavicle 2.40529e-014 3.65764e-014
rhumerus -33.5307 4.76928 -21.5788
rradius 115.785
rwrist -36.8363
rhand 0.652719 2.65998
rfingers 7.12502
rthumb 26.2154 -25.5494
lclavicle 2.40529e-014 3.65764e-014
lhumerus -30.4427 14.4257 72.2119
lradius 25.4543
lwrist -28.7428
lhand -8.07574 28.6796
lfingers 7.12502
lthumb 17.836 57.8817
rfemur -9.93142 6.65615 19.6548
rtibia 22.3756
rfoot -12.6341 6.91699
rtoes 16.0901
lfemur -6.05062 -1.40562 -6.43761
ltibia 20.0629
lfoot -7.21627 14.4409
ltoes 6.56821
399
root 9.79134 18.4232 -6.10917 -3.59449 59.8994 -4.95032
lowerback -0.790138 -3.44347 -2.55871
upperback 4.9866 -4.2434 -3.80666
thorax 5.51171 -2.08984 -2.75666
lowerneck -2.06864 -6.6429 -6.70781
upperneck 42.4426 -5.2904 -5.05982
head 15.4467 -3.56632 -1.55872
rclavicle -5.96354e-016 2.06736e-014
rhumerus -33.4295 4.30063 -21.1855
rradius 115.228
rwrist -36.3769
rhand 0.544214 2.74063
rfingers 7.12502
rthumb 26.1115 -25.4842
lclavicle -5.96354e-016 2.06736e-014
lhumerus -29.4908 13.8929 72.8379
lradius 25.2478
lwrist -28.8332
lhand -8.1809 28.8707
lfingers 7.12502
lthumb 17.7348 58.082
rfemur -10.0782 7.13031 19.4286
rtibia 22.3293
rfoot -12.589 6.295
rtoes 14.4798
lfemur -5.6391 -2.29139 -6.56542
ltibia 18.5588
lfoot -6.39195 14.9994
ltoes 3.98878
400
root 9.82104 18.4177 -6.14493 -3.27794 59.9531 -4.796
lowerback -0.931119 -3.44864 -2.84128
upperback 4.9411 -4.23128 -3.8404
thorax 5.5643 -2.09462 -2.64289
lowerneck -1.96526 -6.74014 -6.63069
upperneck 42.4471 -5.48191 -5.00885
head 15.4217 -3.63169 -1.57114
rclavicle 2.78299e-015 1.90833e-014
rhumerus -33.5505 4.25354 -20.9716
rradius 114.769
rwrist -35.6525
rhand 1.05139 3.06821
rfingers 7.12502
rthumb 26.597 -25.0839
lclavicle 2.78299e-015 1.90833e-014
lhumerus -29.2598 14.3455 72.6793
lradius 24.9185
lwrist -29.935
lhand -7.62961 28.0757
lfingers 7.12502
lthumb 18.2652 57.2382
rfemur -10.2039 7.24525 19.1708
rtibia 22.2235
rfoot -12.5013 5.97773
rtoes 14.3944
lfemur -5.28188 -3.10056 -6.79169
ltibia 17.4784
lfoot -6.67646 16.1436
ltoes 2.335
401
root 9.84859 18.4151 -6.18533 -3.06631 59.9616 -4.7721
lowerback -0.960389 -3.54126 -3.0355
upperback 4.82397 -4.35926 -3.731
thorax 5.47841 -2.17058 -2.42528
lowerneck -2.09199 -6.70933 -7.03083
upperneck 42.6606 -5.36416 -4.93854
head 15.597 -3.63587 -1.47582
rclavicle 1.14898e-013 1.90833e-014
rhumerus -33.5168 4.44372 -20.6429
rradius 114.588
rwrist -34.7184
rhand 0.600416 3.32867
rfingers 7.12502
rthumb 26.1653 -24.8882
lclavicle 1.14898e-013 1.90833e-014
lhumerus -29.3004 15.3099 72.4214
lradius 24.5561
lwrist -31.6284
lhand -6.88888 26.7991
lfingers 7.12502
lthumb 18.9777 55.8932
rfemur -10.3941 6.98042 18.9653
rtibia 22.1215
rfoot -12.3529 6.17238
rtoes 14.3995
lfemur -4.93871 -3.72183 -6.9424
ltibia 16.6865
lfoot -7.60549 17.04
ltoes 2.20224
